<?xml version="1.0" encoding="UTF-8" standalone="no"?>
<!-- Created with Inkscape (http://www.inkscape.org/) -->

<svg
   xmlns:dc="http://purl.org/dc/elements/1.1/"
   xmlns:cc="http://creativecommons.org/ns#"
   xmlns:rdf="http://www.w3.org/1999/02/22-rdf-syntax-ns#"
   xmlns:svg="http://www.w3.org/2000/svg"
   xmlns="http://www.w3.org/2000/svg"
   xmlns:sodipodi="http://sodipodi.sourceforge.net/DTD/sodipodi-0.dtd"
   xmlns:inkscape="http://www.inkscape.org/namespaces/inkscape"
   width="100"
   height="50"
   viewBox="0 0 26.458334 13.229167"
   version="1.1"
   id="svg4594"
   inkscape:version="0.92.3 (2405546, 2018-03-11)"
   sodipodi:docname="logo.svg">
  <defs
     id="defs4588" />
  <sodipodi:namedview
     id="base"
     pagecolor="#ffffff"
     bordercolor="#666666"
     borderopacity="1.0"
     inkscape:pageopacity="0.0"
     inkscape:pageshadow="2"
     inkscape:zoom="7.9195959"
     inkscape:cx="43.622259"
     inkscape:cy="12.768604"
     inkscape:document-units="mm"
     inkscape:current-layer="layer1"
     showgrid="false"
     units="px"
     inkscape:window-width="1920"
     inkscape:window-height="1027"
     inkscape:window-x="-8"
     inkscape:window-y="-8"
     inkscape:window-maximized="1" />
  <metadata
     id="metadata4591">
    <rdf:RDF>
      <cc:Work
         rdf:about="">
        <dc:format>image/svg+xml</dc:format>
        <dc:type
           rdf:resource="http://purl.org/dc/dcmitype/StillImage" />
        <dc:title></dc:title>
      </cc:Work>
    </rdf:RDF>
  </metadata>
  <g
     inkscape:label="Camada 1"
     inkscape:groupmode="layer"
     id="layer1"
     transform="translate(0,-283.77082)">
    <path
       inkscape:connector-curvature="0"
       id="path4156"
       style="font-style:normal;font-variant:normal;font-weight:bold;font-stretch:normal;font-size:medium;line-height:125%;font-family:Aharoni;-inkscape-font-specification:'Aharoni Bold';letter-spacing:0px;word-spacing:0px;fill:#555555;fill-opacity:1;stroke:none;stroke-width:0.06617968px;stroke-linecap:butt;stroke-linejoin:miter;stroke-opacity:1"
       d="m 11.179466,293.10744 c 0,1.2484 -0.590457,2.07744 -1.7713733,2.48715 -0.491647,0.1687 -1.0917445,0.25304 -1.8002924,0.25304 -1.3929994,0 -2.3931631,-0.34222 -3.0004907,-1.02666 -0.385605,-0.4338 -0.5784074,-1.00499 -0.5784074,-1.71353 v -4.25853 h 1.7362422 v 3.80304 c 0,0.41933 0.3076497,0.71073 0.607837,0.92545 0.3457142,0.24726 0.8492131,0.31811 1.2348189,0.31811 0.3807846,0 0.8839445,-0.0719 1.2275856,-0.31811 0.3000345,-0.21493 0.6078389,-0.50612 0.6078389,-0.92545 v -3.80304 h 1.7362412 z"
       sodipodi:nodetypes="scscsccsasasccs" />
    <path
       style="font-style:normal;font-variant:normal;font-weight:bold;font-stretch:normal;font-size:medium;line-height:125%;font-family:Aharoni;-inkscape-font-specification:'Aharoni Bold';letter-spacing:0px;word-spacing:0px;fill:#555555;fill-opacity:1;stroke:none;stroke-width:0.06617968px;stroke-linecap:butt;stroke-linejoin:miter;stroke-opacity:1"
       d="m 15.818051,289.16977 c -1.292183,0 -2.288378,0.42183 -2.988685,1.26549 -0.57832,0.6989 -0.867445,1.50011 -0.867445,2.40368 0,1.00343 0.286792,1.84969 0.860594,2.53862 0.695791,0.83868 1.671768,1.25801 2.927805,1.25801 1.251517,0 2.225162,-0.41933 2.920953,-1.25801 0.573802,-0.68893 0.860723,-1.51515 0.860723,-2.47864 0,-0.9535 -0.289125,-1.77473 -0.867444,-2.46366 -0.709345,-0.84366 -1.658238,-1.26549 -2.846501,-1.26549 z m -0.03451,1.81076 c 0.611866,0 1.100389,0.21713 1.465648,0.65155 0.297789,0.35474 0.446712,0.77774 0.446712,1.26871 0,0.49613 -0.147759,0.92146 -0.443223,1.2762 -0.358278,0.43186 -0.8596,0.64781 -1.504036,0.64781 -0.646762,0 -1.149247,-0.21595 -1.507526,-0.64781 -0.295464,-0.35474 -0.443224,-0.79044 -0.443224,-1.30712 0,-0.46528 0.148923,-0.87789 0.446712,-1.23779 0.360606,-0.43442 0.873562,-0.65155 1.538937,-0.65155 z"
       id="path4158"
       inkscape:connector-curvature="0" />
    <path
       style="font-style:normal;font-variant:normal;font-weight:bold;font-stretch:normal;font-size:medium;line-height:125%;font-family:Aharoni;-inkscape-font-specification:'Aharoni Bold';letter-spacing:0px;word-spacing:0px;fill:#555555;fill-opacity:1;stroke:none;stroke-width:0.06617968px;stroke-linecap:butt;stroke-linejoin:miter;stroke-opacity:1"
       d="m 22.254987,287.67738 c 1.71e-4,4.2841 -1.73e-4,1.47337 -1.73e-4,5.53391 0,0.40235 -0.03629,0.81748 0.229298,0.95163 0.259808,0.13121 0.556873,0.094 0.922221,0.094 v 1.59046 c -0.679825,0 -1.48551,7.2e-4 -1.48551,7.2e-4 -0.438813,-0.002 -0.761014,-0.0913 -1.018468,-0.35157 -0.255836,-0.25865 -0.341526,-0.41613 -0.341526,-1.13689 3.6e-5,-4.54621 1.71e-4,-2.67831 1.71e-4,-6.68243 z"
       id="path4154-2"
       inkscape:connector-curvature="0"
       sodipodi:nodetypes="ccsccssccc" />
    <path
       style="font-style:normal;font-variant:normal;font-weight:bold;font-stretch:normal;font-size:medium;line-height:125%;font-family:Aharoni;-inkscape-font-specification:'Aharoni Bold';letter-spacing:0px;word-spacing:0px;fill:#555555;fill-opacity:1;stroke:none;stroke-width:0.06617968px;stroke-linecap:butt;stroke-linejoin:miter;stroke-opacity:1"
       d="m 1.063214,288.80254 c -2.116e-4,4.4651 1.883e-4,0.92326 1.767e-4,5.15534 0,0.41935 -0.026836,0.83048 -0.30364686,0.97027 -0.27078704,0.13676 -0.28985577,0.11953 -0.67064014,0.11953 v 1.94217 c 0.70854872,0 1.1132334,0.008 1.6327803,-0.007 1.1944422,-0.036 1.4174529,-1.32035 1.4174529,-2.56873 -3.69e-5,-4.73829 -1.83e-4,-1.43762 -1.771e-4,-5.61091 z"
       id="path4154"
       inkscape:connector-curvature="0"
       sodipodi:nodetypes="ccsccsccc" />
    <path
       style="opacity:1;fill:#db4a3f;fill-opacity:1;stroke:none;stroke-width:0.06617968"
       d="m 6.3043816,283.85658 c -2.8062564,10e-4 -5.1150107,2.15206 -5.2413598,4.95547 l 2.808e-4,1.60846 c 0,0 0.6055285,-0.64322 0.9328769,-0.90112 0.3439363,-0.27095 1.1398065,-0.70734 1.1398065,-0.70734 0.1238664,-1.67633 1.4875005,-2.91571 3.1684073,-2.91715 1.9507397,-0.15517 2.9704388,0.99811 5.0584917,2.38993 0.04521,0.0302 0.09609,0.0511 0.142326,0.0815 l 0.01425,0.007 c 0.110789,0.0505 0.217607,0.10637 0.330696,0.14913 0.580782,0.21953 1.190551,0.33687 1.815777,0.34574 v 7.2e-4 c 0.01138,0 0.02263,10e-4 0.03386,10e-4 0.0049,-10e-6 0.0097,-7.2e-4 0.01468,-7.2e-4 0.0049,2e-5 0.0097,7.2e-4 0.01469,7.2e-4 0.01132,-3e-5 0.02255,-10e-4 0.03386,-10e-4 v -7.2e-4 c 0.746981,-0.0106 1.483262,-0.17576 2.16302,-0.4853 l 0.0034,-0.008 c 2.181478,-1.43199 3.202682,-2.63917 5.195646,-2.48066 1.680908,10e-4 3.058304,1.29872 3.182171,2.97507 h 2.059186 c -0.12638,-2.80342 -2.435097,-5.01164 -5.241365,-5.01338 h -6.22e-4 c -1.838076,0.0374 -3.441969,0.40717 -4.935498,1.8684 -0.886713,0.78224 -1.363888,1.04119 -2.474518,1.0468 -1.110622,-0.006 -1.638729,-0.2391 -2.474525,-1.0468 -1.5444424,-1.43579 -3.0974134,-1.83105 -4.9354971,-1.8684 z"
       id="path4228-0-3-7"
       inkscape:connector-curvature="0"
       sodipodi:nodetypes="cccsccsccsccccccccccccccccccc" />
    <path
       inkscape:connector-curvature="0"
       id="path4162"
       style="font-style:normal;font-variant:normal;font-weight:bold;font-stretch:normal;font-size:medium;line-height:125%;font-family:Aharoni;-inkscape-font-specification:'Aharoni Bold';letter-spacing:0px;word-spacing:0px;fill:#db4a3f;fill-opacity:1;stroke:none;stroke-width:0.06617968px;stroke-linecap:butt;stroke-linejoin:miter;stroke-opacity:1"
       d="m 26.366471,295.84736 h -2.059889 v -7.04482 h 2.059889 z"
       sodipodi:nodetypes="ccccc" />
    <path
       style="opacity:1;fill:#555555;fill-opacity:1;stroke:none;stroke-width:0.06617968"
       d="m 21.124697,283.85661 c -1.83808,0.0374 -3.442098,0.40693 -4.935627,1.86816 -0.389344,0.34348 -0.699885,0.5824 -1.019608,0.74694 l -2.37e-4,0.004 c -0.526347,0.37008 -1.045313,0.88646 -1.793341,1.25557 -0.664496,0.3279 -1.464184,0.4559 -2.125243,0.47763 0.0938,0.0635 0.107086,0.085 0.257525,0.16347 0.662087,0.34578 1.411088,0.4852 2.158057,0.49581 v 7.2e-4 c 0.01138,0 0.02252,10e-4 0.03375,10e-4 0.0049,-1e-5 0.0097,-7.2e-4 0.01463,-7.2e-4 0.0049,2e-5 0.0097,7.2e-4 0.01463,7.2e-4 0.01132,-4e-5 0.02244,-10e-4 0.03375,-10e-4 v -7.2e-4 c 0.746981,-0.0107 1.483164,-0.17593 2.162921,-0.48547 l 0.0034,-0.008 c 2.181478,-1.43199 3.203115,-2.63927 5.196078,-2.48075 1.680911,10e-4 2.964768,1.22867 3.182227,2.90503 0,0 0.778958,0.44367 1.155135,0.77358 0.39626,0.34752 0.904972,0.8472 0.904972,0.8472 l -0.0013,-1.62078 c -0.12634,-2.80342 -2.43478,-4.94135 -5.241047,-4.94309 z"
       id="path4228-0-3"
       inkscape:connector-curvature="0"
       sodipodi:nodetypes="ccccscscccccccccccscccc" />
  </g>
</svg>
